<svg width="400" height="300" viewBox="0 0 400 300" xmlns="http://www.w3.org/2000/svg">
  <!-- 书籍和阅读图标 -->
  <rect x="50" y="50" width="300" height="200" rx="10" fill="#E4ECFB" />
  
  <!-- 书本 -->
  <rect x="100" y="70" width="200" height="160" rx="5" fill="#FFFFFF" stroke="#4A90E2" stroke-width="2" />
  
  <!-- 书脊 -->
  <rect x="100" y="70" width="20" height="160" fill="#4A90E2" />
  
  <!-- 书页线条 -->
  <line x1="130" y1="90" x2="280" y2="90" stroke="#E0E0E0" stroke-width="2" />
  <line x1="130" y1="110" x2="280" y2="110" stroke="#E0E0E0" stroke-width="2" />
  <line x1="130" y1="130" x2="280" y2="130" stroke="#E0E0E0" stroke-width="2" />
  <line x1="130" y1="150" x2="280" y2="150" stroke="#E0E0E0" stroke-width="2" />
  <line x1="130" y1="170" x2="280" y2="170" stroke="#E0E0E0" stroke-width="2" />
  <line x1="130" y1="190" x2="280" y2="190" stroke="#E0E0E0" stroke-width="2" />
  <line x1="130" y1="210" x2="280" y2="210" stroke="#E0E0E0" stroke-width="2" />
  
  <!-- 铅笔 -->
  <polygon points="320,150 330,140 350,160 340,170" fill="#FFD700" />
  <polygon points="350,160 340,170 370,200 380,190" fill="#FFA500" />
  <polygon points="380,190 370,200 385,215 395,205" fill="#FF4500" />
  
  <!-- 笔尖 -->
  <polygon points="385,215 395,205 400,220 390,225" fill="#333333" />
</svg> 